<svg id="Layer_1" data-name="Layer 1" xmlns="http://www.w3.org/2000/svg" width="24.15" height="3.35" viewBox="0 0 24.15 3.35">
  <defs>
    <style>
      .cls-1 {
        fill: #231f20;
        fill-rule: evenodd;
      }
    </style>
  </defs>
  <title>Eminem</title>
  <g>
    <polygon class="cls-1" points="0.91 1.33 0.91 0.64 3.13 0.64 3.13 0 0 0 0 3.35 3.14 3.35 3.14 2.71 0.91 2.71 0.91 1.94 3.02 1.94 3.02 1.33 0.91 1.33 0.91 1.33"/>
    <polygon class="cls-1" points="5.19 0 3.85 0 3.85 3.35 4.74 3.35 4.74 0.67 4.74 0.67 5.79 3.35 6.56 3.35 7.62 0.67 7.63 0.67 7.63 3.35 8.51 3.35 8.51 0 7.18 0 6.18 2.41 5.19 0 5.19 0"/>
    <polygon class="cls-1" points="10.26 0 9.35 0 9.35 3.35 10.26 3.35 10.26 0 10.26 0"/>
    <polygon class="cls-1" points="12.15 0 11.1 0 11.1 3.35 11.97 3.35 11.97 1.02 11.99 1.02 13.82 3.35 14.8 3.35 14.8 0 13.93 0 13.93 2.33 13.91 2.33 12.15 0 12.15 0"/>
    <polygon class="cls-1" points="15.49 0 15.49 0.64 17.7 0.64 17.7 1.33 15.61 1.33 15.61 1.94 17.7 1.94 17.7 2.71 15.47 2.71 15.47 3.35 18.62 3.35 18.62 0 15.49 0 15.49 0"/>
    <polygon class="cls-1" points="20.38 0.67 20.38 0.67 21.44 3.35 22.2 3.35 23.26 0.67 23.27 0.67 23.27 3.35 24.15 3.35 24.15 0 22.82 0 21.82 2.41 20.83 0 19.49 0 19.49 3.35 20.38 3.35 20.38 0.67 20.38 0.67"/>
  </g>
</svg>
